<svg width="16" height="12" viewBox="0 0 16 12" fill="none" xmlns="http://www.w3.org/2000/svg">
<path d="M14.0952 0.0625H2.30456C1.25205 0.0625 0.396484 0.918065 0.396484 1.97057V10.029C0.396484 11.0815 1.25205 11.9371 2.30456 11.9371H14.092C15.1445 11.9371 16.0001 11.0815 16.0001 10.029V1.9738C16.0033 0.921294 15.1477 0.0625 14.0952 0.0625ZM15.1316 10.029C15.1316 10.6005 14.6667 11.0654 14.0952 11.0654H2.30456C1.7331 11.0654 1.26819 10.6005 1.26819 10.029V1.9738C1.26819 1.40235 1.7331 0.937437 2.30456 0.937437H14.092C14.6634 0.937437 15.1283 1.40235 15.1283 1.9738V10.029H15.1316Z" fill="url(#paint1_linear)"/>
<path d="M10.2369 5.90009L14.0531 2.47783C14.2306 2.3164 14.2468 2.04198 14.0853 1.86118C13.9239 1.68361 13.6495 1.66746 13.4687 1.82889L8.20615 6.55226L7.17948 5.63535C7.17625 5.63212 7.17302 5.62889 7.17302 5.62567C7.15042 5.60307 7.12782 5.58369 7.10199 5.56432L2.92425 1.82566C2.74345 1.66424 2.46902 1.68038 2.3076 1.86118C2.14617 2.04198 2.16231 2.3164 2.34311 2.47783L6.20445 5.92915L2.35925 9.52898C2.18491 9.69364 2.17523 9.96806 2.33988 10.1456C2.42705 10.236 2.54328 10.2845 2.65951 10.2845C2.76605 10.2845 2.87259 10.2457 2.95654 10.1682L6.85985 6.51674L7.91881 7.46271C8.00276 7.53697 8.10607 7.57248 8.20938 7.57248C8.3127 7.57248 8.41924 7.53374 8.49995 7.45948L9.58797 6.48446L13.4687 10.1715C13.5526 10.2522 13.6624 10.2909 13.7689 10.2909C13.8852 10.2909 13.9982 10.2457 14.0853 10.1553C14.25 9.98098 14.2435 9.70332 14.0692 9.53867L10.2369 5.90009Z" fill="url(#paint1_linear)"/>
<defs>
<linearGradient id="paint0_linear" x1="6.05912" y1="16.7083" x2="32.6417" y2="16.8013" gradientUnits="userSpaceOnUse">
<stop stop-color="#CBB6A4"/>
<stop offset="0.261458" stop-color="#ECD9C7"/>
<stop offset="0.630076" stop-color="#B39C8B"/>
</linearGradient>
<linearGradient id="paint1_linear" x1="9.07675" y1="17.3497" x2="29.5342" y2="17.4259" gradientUnits="userSpaceOnUse">
<stop stop-color="#CBB6A4"/>
<stop offset="0.261458" stop-color="#ECD9C7"/>
<stop offset="0.630076" stop-color="#B39C8B"/>
</linearGradient>
</defs>
</svg>
