<svg width="38" height="38" viewBox="0 0 38 38" fill="none" xmlns="http://www.w3.org/2000/svg">
<path d="M29.0723 9H9.2137C7.441 9 6 10.441 6 12.2137V25.7863C6 27.559 7.441 29 9.2137 29H29.0669C30.8396 29 32.2806 27.559 32.2806 25.7863V12.2191C32.286 10.4464 30.845 9 29.0723 9ZM30.8178 25.7863C30.8178 26.7488 30.0348 27.5318 29.0723 27.5318H9.2137C8.25122 27.5318 7.46819 26.7488 7.46819 25.7863V12.2191C7.46819 11.2567 8.25122 10.4736 9.2137 10.4736H29.0669C30.0294 10.4736 30.8124 11.2567 30.8124 12.2191V25.7863H30.8178Z" fill="white"/>
<path d="M22.5738 18.8321L29.0012 13.0681C29.3003 12.7962 29.3275 12.334 29.0556 12.0295C28.7837 11.7304 28.3215 11.7032 28.017 11.9751L19.1535 19.9305L17.4243 18.3862C17.4188 18.3808 17.4134 18.3754 17.4134 18.3699C17.3753 18.3319 17.3373 18.2992 17.2938 18.2666L10.2573 11.9697C9.95282 11.6978 9.49061 11.725 9.21872 12.0295C8.94684 12.334 8.97402 12.7962 9.27854 13.0681L15.7821 18.8811L9.30573 24.9441C9.01209 25.2215 8.99578 25.6837 9.2731 25.9827C9.41992 26.135 9.61568 26.2166 9.81144 26.2166C9.99088 26.2166 10.1703 26.1513 10.3117 26.0208L16.8859 19.8707L18.6695 21.464C18.8109 21.5891 18.9849 21.6489 19.1589 21.6489C19.3329 21.6489 19.5124 21.5836 19.6483 21.4586L21.4808 19.8164L28.017 26.0263C28.1584 26.1622 28.3432 26.2274 28.5227 26.2274C28.7184 26.2274 28.9088 26.1513 29.0556 25.9991C29.3329 25.7054 29.322 25.2378 29.0284 24.9605L22.5738 18.8321Z" fill="white"/>
</svg>
