<svg width="24" height="24" viewBox="0 0 24 24" fill="none" xmlns="http://www.w3.org/2000/svg">
<path d="M6.32557 12.7824H8.95636V23.6129C8.95636 23.8267 9.12962 24 9.34346 24H13.8041C14.0179 24 14.1911 23.8267 14.1911 23.6129V12.8334H17.2155C17.4121 12.8334 17.5775 12.6859 17.6 12.4905L18.0593 8.50328C18.0719 8.39357 18.0372 8.28372 17.9638 8.20142C17.8903 8.11905 17.7852 8.0719 17.6749 8.0719H14.1913V5.57249C14.1913 4.81905 14.597 4.43698 15.3972 4.43698C15.5112 4.43698 17.6749 4.43698 17.6749 4.43698C17.8887 4.43698 18.062 4.26364 18.062 4.04988V0.389961C18.062 0.176129 17.8887 0.00286452 17.6749 0.00286452H14.5359C14.5138 0.00178065 14.4646 0 14.3921 0C13.8475 0 11.9543 0.106916 10.4589 1.48266C8.80199 3.0072 9.03231 4.83259 9.08735 5.14908V8.07182H6.32557C6.11174 8.07182 5.93848 8.24508 5.93848 8.45892V12.3952C5.93848 12.6091 6.11174 12.7824 6.32557 12.7824Z" fill="white"/>
</svg>
