<svg id="Layer_1" data-name="Layer 1" xmlns="http://www.w3.org/2000/svg" viewBox="0 0 798.31 399.15"><defs><style>.cls-1{fill:#fff;}</style></defs><title>Artistic Elements</title><polygon class="cls-1" points="354.87 278.81 149.15 278.81 149.15 73.65 354.87 73.65 354.87 118.97 346.95 118.97 346.95 81.57 157.07 81.57 157.07 270.89 346.95 270.89 346.95 235.31 354.87 235.31 354.87 278.81"/><path class="cls-1" d="M201.1,188.91l-6.6,20H186l21.58-63.5h9.89l21.66,63.5h-8.76l-6.78-20Zm20.81-6.4-6.21-18.28c-1.42-4.14-2.36-7.91-3.3-11.58h-.19c-.94,3.76-2,7.63-3.2,11.49l-6.22,18.37Z"/><path class="cls-1" d="M248.48,146.24a85,85,0,0,1,15.73-1.32c8.76,0,14.41,1.6,18.37,5.18a15.83,15.83,0,0,1,5,12.06c0,8.38-5.28,13.94-12,16.2v.29c4.89,1.69,7.81,6.21,9.32,12.81,2.07,8.85,3.58,15,4.9,17.43h-8.48c-1-1.79-2.45-7.26-4.24-15.17-1.88-8.76-5.27-12.06-12.71-12.34h-7.73v27.51h-8.19Zm8.19,28.92h8.38c8.77,0,14.32-4.8,14.32-12.06,0-8.19-5.93-11.77-14.6-11.87a33.48,33.48,0,0,0-8.1.76Z"/><path class="cls-1" d="M312.06,152.36H292.74v-7h47v7H320.34v56.53h-8.28Z"/><path class="cls-1" d="M355,145.39v63.5h-8.2v-63.5Z"/><path class="cls-1" d="M368.19,198.9a29.09,29.09,0,0,0,14.7,4.14c8.38,0,13.28-4.42,13.28-10.83,0-5.93-3.39-9.32-12-12.62-10.36-3.68-16.77-9.05-16.77-18,0-9.9,8.2-17.24,20.54-17.24,6.5,0,11.21,1.5,14,3.1l-2.26,6.69a25.29,25.29,0,0,0-12.06-3c-8.66,0-12,5.18-12,9.51,0,5.94,3.86,8.86,12.62,12.25,10.74,4.15,16.21,9.33,16.21,18.65,0,9.8-7.26,18.28-22.24,18.28-6.12,0-12.81-1.79-16.2-4.05Z"/><path class="cls-1" d="M427.82,152.36H408.51v-7h47v7h-19.4v56.53h-8.29Z"/><path class="cls-1" d="M470.77,145.39v63.5h-8.19v-63.5Z"/><path class="cls-1" d="M529.46,206.81c-3,1.51-9.05,3-16.77,3-17.9,0-31.37-11.31-31.37-32.13,0-19.87,13.47-33.34,33.16-33.34,7.91,0,12.9,1.69,15.07,2.82l-2,6.69a29.79,29.79,0,0,0-12.81-2.64c-14.88,0-24.77,9.52-24.77,26.19C490,193,498.94,203,514.38,203a32.83,32.83,0,0,0,13.38-2.64Z"/><path class="cls-1" d="M395.72,258.42H378.8v15.69h18.86v4.71H373.19V235.31h23.5V240H378.8v13.75h16.92Z"/><path class="cls-1" d="M405,235.31h5.61v38.8h18.6v4.71H405Z"/><path class="cls-1" d="M458,258.42H441v15.69h18.86v4.71H435.42V235.31h23.5V240H441v13.75H458Z"/><path class="cls-1" d="M503.85,259.71c-.33-6.07-.71-13.36-.65-18.79H503c-1.49,5.1-3.29,10.53-5.49,16.53l-7.68,21.11h-4.26l-7-20.72c-2.07-6.13-3.81-11.75-5-16.92h-.13c-.12,5.43-.45,12.72-.83,19.24l-1.17,18.66H466l3-43.51h7.17l7.42,21c1.81,5.36,3.29,10.14,4.39,14.66h.19c1.1-4.39,2.65-9.17,4.59-14.66l7.74-21h7.17l2.71,43.51h-5.49Z"/><path class="cls-1" d="M541.61,258.42H524.69v15.69h18.86v4.71H519.08V235.31h23.5V240H524.69v13.75h16.92Z"/><path class="cls-1" d="M550.84,278.82V235.31H557l13.95,22a125.41,125.41,0,0,1,7.81,14.14l.13-.06c-.52-5.81-.65-11.11-.65-17.89v-18.2h5.29v43.51h-5.68L564,256.74a138.08,138.08,0,0,1-8.14-14.52l-.19.06c.32,5.49.45,10.72.45,18v18.59Z"/><path class="cls-1" d="M601.58,240.08H588.34v-4.77h32.22v4.77h-13.3v38.74h-5.68Z"/><path class="cls-1" d="M624.23,272a19.92,19.92,0,0,0,10.08,2.84c5.74,0,9.1-3,9.1-7.43,0-4.06-2.33-6.39-8.2-8.65-7.1-2.51-11.49-6.19-11.49-12.33,0-6.78,5.61-11.81,14.07-11.81a19.74,19.74,0,0,1,9.62,2.13l-1.55,4.58a17.37,17.37,0,0,0-8.26-2.06c-5.94,0-8.2,3.55-8.2,6.52,0,4.06,2.65,6.07,8.65,8.39,7.36,2.84,11.1,6.39,11.1,12.78,0,6.72-5,12.53-15.23,12.53-4.2,0-8.78-1.23-11.11-2.78Z"/><path class="cls-1" d="M194.66,319.52v-1.39h2.18V300.46h-2.31v-1.4h4.73v9a5.17,5.17,0,0,1,1.74-2.14,4.39,4.39,0,0,1,2.49-.73,4.17,4.17,0,0,1,3.41,1.33,6.47,6.47,0,0,1,1.09,4.14v7.5h2.16v1.39h-6.68v-1.39h2.09V311.4a6.84,6.84,0,0,0-.63-3.51,2.49,2.49,0,0,0-2.23-.94,3,3,0,0,0-2.56,1.23,6,6,0,0,0-.88,3.56v6.39h2.1v1.39Z"/><path class="cls-1" d="M218.48,319.9a6.31,6.31,0,0,1-4.9-2,8.64,8.64,0,0,1,0-10.7,7,7,0,0,1,9.82,0,8.66,8.66,0,0,1,0,10.7A6.32,6.32,0,0,1,218.48,319.9Zm0-1.3a3.26,3.26,0,0,0,2.94-1.54,10.86,10.86,0,0,0,0-9.06,3.59,3.59,0,0,0-5.88,0,8.41,8.41,0,0,0-1,4.53,8.31,8.31,0,0,0,1,4.53A3.27,3.27,0,0,0,218.48,318.6Z"/><path class="cls-1" d="M240.07,308.27a5.59,5.59,0,0,1,1.78-2.32,4.16,4.16,0,0,1,2.53-.79,3.93,3.93,0,0,1,3.27,1.36,6.55,6.55,0,0,1,1.08,4.11v7.5h2.18v1.39h-6.7v-1.39h2.1v-7.22a5.55,5.55,0,0,0-.63-3.05,2.38,2.38,0,0,0-2.09-.91,2.79,2.79,0,0,0-2.46,1.23,6.18,6.18,0,0,0-.85,3.56v6.39h2.1v1.39h-6.63v-1.39h2.11v-7.31a5.3,5.3,0,0,0-.63-3,2.39,2.39,0,0,0-2.09-.89,2.82,2.82,0,0,0-2.47,1.23,6.26,6.26,0,0,0-.85,3.56v6.39h2.11v1.39h-6.71v-1.39h2.18v-11.2h-2.31v-1.38h4.73V308a5.45,5.45,0,0,1,1.71-2.13,4,4,0,0,1,2.36-.74,4.45,4.45,0,0,1,2.72.81A3.94,3.94,0,0,1,240.07,308.27Z"/><path class="cls-1" d="M265.73,312.79H255.3v.11a7.12,7.12,0,0,0,1.07,4.26,3.65,3.65,0,0,0,3.14,1.44,4,4,0,0,0,2.61-.83,4.53,4.53,0,0,0,1.43-2.48h1.94a6,6,0,0,1-2.14,3.46,6.68,6.68,0,0,1-4.09,1.15,6.38,6.38,0,0,1-4.93-2,7.56,7.56,0,0,1-1.86-5.35,7.66,7.66,0,0,1,1.83-5.34,6.17,6.17,0,0,1,4.8-2,6.09,6.09,0,0,1,4.87,2A8.68,8.68,0,0,1,265.73,312.79Zm-2.86-1.39a6.31,6.31,0,0,0-1-3.69,3.23,3.23,0,0,0-2.74-1.24,3.12,3.12,0,0,0-2.63,1.25,7,7,0,0,0-1.17,3.68Z"/><path class="cls-1" d="M289.49,318.13h2.32v1.39h-4.74v-2.18a4.72,4.72,0,0,1-1.8,1.94,5.42,5.42,0,0,1-2.72.62,5.15,5.15,0,0,1-4.21-2,9.51,9.51,0,0,1,0-10.66,5.15,5.15,0,0,1,4.22-2,5.42,5.42,0,0,1,2.72.63,4.72,4.72,0,0,1,1.8,1.94v-7.27h-2.28v-1.4h4.7Zm-2.42-4.9v-1.39a6.52,6.52,0,0,0-1-3.84,3.27,3.27,0,0,0-2.81-1.32,3.15,3.15,0,0,0-2.82,1.47,10.57,10.57,0,0,0,0,8.76,3.14,3.14,0,0,0,2.82,1.48,3.27,3.27,0,0,0,2.81-1.32A6.48,6.48,0,0,0,287.07,313.23Z"/><path class="cls-1" d="M306.65,312.79H296.22v.11a7.12,7.12,0,0,0,1.07,4.26,3.66,3.66,0,0,0,3.14,1.44,4,4,0,0,0,2.61-.83,4.47,4.47,0,0,0,1.43-2.48h1.94a5.89,5.89,0,0,1-2.13,3.46,6.73,6.73,0,0,1-4.1,1.15,6.36,6.36,0,0,1-4.92-2,7.56,7.56,0,0,1-1.86-5.35,7.7,7.7,0,0,1,1.82-5.34,6.17,6.17,0,0,1,4.8-2,6.07,6.07,0,0,1,4.87,2A8.63,8.63,0,0,1,306.65,312.79Zm-2.85-1.39a6.46,6.46,0,0,0-1-3.69,3.27,3.27,0,0,0-2.75-1.24,3.12,3.12,0,0,0-2.63,1.25,7,7,0,0,0-1.17,3.68Z"/><path class="cls-1" d="M321.83,315.33a5.87,5.87,0,0,1-2,3.4,5.78,5.78,0,0,1-3.77,1.17,6.31,6.31,0,0,1-4.9-2,8.64,8.64,0,0,1,0-10.71,6.34,6.34,0,0,1,4.9-2,11.76,11.76,0,0,1,2.64.31,13.57,13.57,0,0,1,2.65.94V310H320a4.39,4.39,0,0,0-1.21-2.68,3.79,3.79,0,0,0-2.64-.84,3.29,3.29,0,0,0-3,1.52,8.28,8.28,0,0,0-1,4.54,8.44,8.44,0,0,0,1,4.55,3.29,3.29,0,0,0,3,1.52,3.66,3.66,0,0,0,2.49-.81,4.33,4.33,0,0,0,1.28-2.46Z"/><path class="cls-1" d="M331.07,319.9a6.34,6.34,0,0,1-4.91-2,8.66,8.66,0,0,1,0-10.7,7,7,0,0,1,9.82,0,8.7,8.7,0,0,1,0,10.7A6.32,6.32,0,0,1,331.07,319.9Zm0-1.3a3.26,3.26,0,0,0,2.93-1.54,10.76,10.76,0,0,0,0-9.06,3.58,3.58,0,0,0-5.87,0,10.76,10.76,0,0,0,0,9.06A3.28,3.28,0,0,0,331.07,318.6Z"/><path class="cls-1" d="M351.58,305.52V309h-1.4a2.25,2.25,0,0,0-.58-1.55,2,2,0,0,0-1.5-.52,3.27,3.27,0,0,0-2.74,1.24,5.75,5.75,0,0,0-.95,3.55v6.39h2.8v1.39h-7.4v-1.39H342v-11.2h-2.31v-1.38h4.73V308a5.06,5.06,0,0,1,1.83-2.16,5,5,0,0,1,2.72-.71,9.12,9.12,0,0,1,1.24.1C350.63,305.32,351.09,305.41,351.58,305.52Z"/><path class="cls-1" d="M388.3,302.37H387a2,2,0,0,0-.56-1.5,2.18,2.18,0,0,0-1.58-.52,2.23,2.23,0,0,0-1.91.75,4.67,4.67,0,0,0-.55,2.64v1.81h3.91V307h-3.91v11.18h3.1v1.39h-7.83v-1.39H380V307h-2.31v-1.4H380V303.8a4.77,4.77,0,0,1,1.22-3.54,4.88,4.88,0,0,1,3.57-1.2,10.57,10.57,0,0,1,1.76.16,10.15,10.15,0,0,1,1.75.49Z"/><path class="cls-1" d="M400.2,305.52V309h-1.4a2.29,2.29,0,0,0-.57-1.55,2,2,0,0,0-1.5-.52,3.25,3.25,0,0,0-2.74,1.24,5.68,5.68,0,0,0-1,3.55v6.39h2.8v1.39h-7.4v-1.39h2.18v-11.2H388.3v-1.38H393V308a5.06,5.06,0,0,1,1.83-2.16,5,5,0,0,1,2.72-.71,9.12,9.12,0,0,1,1.24.1C399.26,305.32,399.72,305.41,400.2,305.52Z"/><path class="cls-1" d="M413.46,310.79v7.34h2.16v1.39H411V318a4.85,4.85,0,0,1-1.85,1.43,6,6,0,0,1-2.46.46,5.31,5.31,0,0,1-3.69-1.23,4.26,4.26,0,0,1-1.37-3.34,4,4,0,0,1,1.56-3.37,7.15,7.15,0,0,1,4.42-1.19H411v-1a3.17,3.17,0,0,0-1-2.47,3.93,3.93,0,0,0-2.72-.87,3.67,3.67,0,0,0-2.3.65,3,3,0,0,0-1.07,1.95h-1.24v-2.83a14.32,14.32,0,0,1,2.45-.81,11.1,11.1,0,0,1,2.32-.27,6.17,6.17,0,0,1,4.42,1.44A5.48,5.48,0,0,1,413.46,310.79ZM411,315.13v-3h-3.11a4,4,0,0,0-2.69.78,3.53,3.53,0,0,0,0,4.69,3.34,3.34,0,0,0,2.42.86,3.28,3.28,0,0,0,2.44-.94A3.32,3.32,0,0,0,411,315.13Z"/><path class="cls-1" d="M430.71,308.27a5.67,5.67,0,0,1,1.78-2.32,4.16,4.16,0,0,1,2.53-.79,4,4,0,0,1,3.28,1.36,6.61,6.61,0,0,1,1.08,4.11v7.5h2.18v1.39h-6.71v-1.39H437v-7.22a5.45,5.45,0,0,0-.64-3.05,2.37,2.37,0,0,0-2.09-.91,2.79,2.79,0,0,0-2.46,1.23,6.18,6.18,0,0,0-.85,3.56v6.39H433v1.39H426.4v-1.39h2.1v-7.31a5.3,5.3,0,0,0-.63-3,2.39,2.39,0,0,0-2.09-.89,2.79,2.79,0,0,0-2.46,1.23,6.18,6.18,0,0,0-.85,3.56v6.39h2.1v1.39h-6.71v-1.39h2.19v-11.2h-2.32v-1.38h4.74V308a5.28,5.28,0,0,1,1.71-2.13,4,4,0,0,1,2.35-.74,4.43,4.43,0,0,1,2.72.81A3.9,3.9,0,0,1,430.71,308.27Z"/><path class="cls-1" d="M448.46,318.13h2.28v1.39h-7v-1.39H446V307h-2.32v-1.4h4.74Zm-3.09-16.92a1.4,1.4,0,0,1,.44-1,1.45,1.45,0,0,1,2.1,0,1.4,1.4,0,0,1,.44,1,1.49,1.49,0,0,1-2.54,1.05A1.4,1.4,0,0,1,445.37,301.21Z"/><path class="cls-1" d="M452.92,319.52v-1.39h2.19V307h-2.32v-1.4h4.74V308a5,5,0,0,1,1.74-2.14,4.35,4.35,0,0,1,2.49-.73,4.19,4.19,0,0,1,3.41,1.33,6.53,6.53,0,0,1,1.09,4.14v7.5h2.15v1.39h-6.68v-1.39h2.1V311.4a6.78,6.78,0,0,0-.64-3.52,2.45,2.45,0,0,0-2.22-.95,2.94,2.94,0,0,0-2.56,1.23,6.06,6.06,0,0,0-.88,3.58v6.39h2.1v1.39Z"/><path class="cls-1" d="M482.87,307v12.27a6.22,6.22,0,0,1-1.66,4.65,6.42,6.42,0,0,1-4.72,1.64,13.28,13.28,0,0,1-2.64-.26,11.7,11.7,0,0,1-2.42-.74v-2.94h1.26a2.93,2.93,0,0,0,1.12,2,4.32,4.32,0,0,0,2.53.63,3.82,3.82,0,0,0,3.12-1.2,5.9,5.9,0,0,0,1-3.78v-1.88a4.74,4.74,0,0,1-1.81,1.94,5.35,5.35,0,0,1-2.71.62,5.18,5.18,0,0,1-4.22-2,9.53,9.53,0,0,1,0-10.66,5.14,5.14,0,0,1,4.22-2,5.35,5.35,0,0,1,2.71.63,4.74,4.74,0,0,1,1.81,1.94v-2.18h4.73V307Zm-2.42,4.89a6.44,6.44,0,0,0-1-3.84,3.25,3.25,0,0,0-2.8-1.32,3.13,3.13,0,0,0-2.82,1.47,10.47,10.47,0,0,0,0,8.76,3.12,3.12,0,0,0,2.82,1.48,3.25,3.25,0,0,0,2.8-1.32,6.4,6.4,0,0,0,1-3.84Z"/><path class="cls-1" d="M525.25,318.13h2.31v1.39h-4.73v-2.18a4.81,4.81,0,0,1-1.81,1.94,5.38,5.38,0,0,1-2.71.62,5.17,5.17,0,0,1-4.22-2,9.53,9.53,0,0,1,0-10.66,5.14,5.14,0,0,1,4.22-2,5.38,5.38,0,0,1,2.71.63,4.81,4.81,0,0,1,1.81,1.94v-7.27h-2.29v-1.4h4.71Zm-2.42-4.9v-1.39a6.44,6.44,0,0,0-1-3.84,3.25,3.25,0,0,0-2.8-1.32,3.16,3.16,0,0,0-2.83,1.47,10.57,10.57,0,0,0,0,8.76,3.15,3.15,0,0,0,2.83,1.48,3.25,3.25,0,0,0,2.8-1.32A6.4,6.4,0,0,0,522.83,313.23Z"/><path class="cls-1" d="M542.4,312.79H532v.11a7.12,7.12,0,0,0,1.06,4.26,3.66,3.66,0,0,0,3.14,1.44,4,4,0,0,0,2.61-.83,4.47,4.47,0,0,0,1.43-2.48h1.95a6,6,0,0,1-2.14,3.46,6.7,6.7,0,0,1-4.09,1.15,6.37,6.37,0,0,1-4.93-2,7.56,7.56,0,0,1-1.86-5.35,7.66,7.66,0,0,1,1.83-5.34,6.17,6.17,0,0,1,4.8-2,6.07,6.07,0,0,1,4.86,2A8.63,8.63,0,0,1,542.4,312.79Zm-2.85-1.39a6.38,6.38,0,0,0-1-3.69,3.25,3.25,0,0,0-2.74-1.24,3.11,3.11,0,0,0-2.63,1.25A7,7,0,0,0,532,311.4Z"/><path class="cls-1" d="M545.15,318.75v-3.26h1.4a3,3,0,0,0,1,2.34,5.3,5.3,0,0,0,5.22.16,2.06,2.06,0,0,0,.86-1.78,1.92,1.92,0,0,0-.63-1.49,8.11,8.11,0,0,0-2.63-1.21l-1.75-.59a6.11,6.11,0,0,1-2.61-1.44,3.12,3.12,0,0,1-.81-2.21,3.58,3.58,0,0,1,1.41-3,6.16,6.16,0,0,1,3.89-1.1,10.22,10.22,0,0,1,2.32.29,16.36,16.36,0,0,1,2.53.85v3.05h-1.4a2.75,2.75,0,0,0-.94-2.12,3.63,3.63,0,0,0-2.43-.76,4.06,4.06,0,0,0-2.31.54,2,2,0,0,0-.19,3,7,7,0,0,0,2.36,1.08l1.92.59a6.61,6.61,0,0,1,2.86,1.55,3.3,3.3,0,0,1,.88,2.38,3.7,3.7,0,0,1-1.52,3.13,6.9,6.9,0,0,1-4.19,1.13,12.2,12.2,0,0,1-2.64-.28A14.52,14.52,0,0,1,545.15,318.75Z"/><path class="cls-1" d="M563.06,318.13h2.29v1.39h-7v-1.39h2.31V307h-2.31v-1.4h4.73ZM560,301.21a1.52,1.52,0,0,1,1.5-1.5,1.52,1.52,0,0,1,1.48,1.5,1.47,1.47,0,0,1-1.48,1.48,1.49,1.49,0,0,1-1.5-1.48Z"/><path class="cls-1" d="M579.73,307v12.27a6.22,6.22,0,0,1-1.66,4.65,6.43,6.43,0,0,1-4.72,1.64,13.28,13.28,0,0,1-2.64-.26,11.7,11.7,0,0,1-2.42-.74v-2.94h1.26a2.93,2.93,0,0,0,1.12,2,4.3,4.3,0,0,0,2.52.63,3.8,3.8,0,0,0,3.12-1.2,5.83,5.83,0,0,0,1-3.78v-1.88a4.74,4.74,0,0,1-1.81,1.94,5.38,5.38,0,0,1-2.71.62,5.17,5.17,0,0,1-4.22-2,9.51,9.51,0,0,1,0-10.66,5.17,5.17,0,0,1,4.23-2,5.38,5.38,0,0,1,2.71.63,4.74,4.74,0,0,1,1.81,1.94v-2.18H582V307Zm-2.42,4.89a6.44,6.44,0,0,0-1-3.84,3.26,3.26,0,0,0-2.81-1.32,3.15,3.15,0,0,0-2.82,1.47,10.57,10.57,0,0,0,0,8.76,3.14,3.14,0,0,0,2.82,1.48,3.26,3.26,0,0,0,2.81-1.32,6.4,6.4,0,0,0,1-3.84Z"/><path class="cls-1" d="M584.37,319.52v-1.39h2.18V307h-2.31v-1.4H589V308a5.17,5.17,0,0,1,1.74-2.14,4.39,4.39,0,0,1,2.49-.73,4.17,4.17,0,0,1,3.41,1.33,6.47,6.47,0,0,1,1.09,4.14v7.5h2.16v1.39h-6.68v-1.39h2.09V311.4a6.91,6.91,0,0,0-.63-3.52,2.45,2.45,0,0,0-2.22-.95,3,3,0,0,0-2.57,1.23,6.06,6.06,0,0,0-.88,3.58v6.39h2.1v1.39Z"/><rect class="cls-1" x="496.34" y="311.39" width="4.01" height="4.01" rx="2"/><rect class="cls-1" x="361.67" y="311.39" width="4.01" height="4.01" rx="2"/></svg>