<svg width="25" height="25" viewBox="0 0 25 25" fill="none" xmlns="http://www.w3.org/2000/svg">
<path d="M17.6482 0H6.72647C3.0175 0 0 3.01764 0 6.72662V17.6484C0 21.3575 3.0175 24.375 6.72647 24.375H17.6482C21.3575 24.375 24.375 21.3574 24.375 17.6484V6.72662C24.3751 3.01764 21.3575 0 17.6482 0ZM22.2125 17.6484C22.2125 20.165 20.165 22.2123 17.6484 22.2123H6.72647C4.20999 22.2125 2.16267 20.165 2.16267 17.6484V6.72662C2.16267 4.21014 4.20999 2.16267 6.72647 2.16267H17.6482C20.1649 2.16267 22.2123 4.21014 22.2123 6.72662V17.6484H22.2125Z" fill="white"/>
<path d="M12.1871 5.90674C8.72377 5.90674 5.90625 8.72426 5.90625 12.1876C5.90625 15.6507 8.72377 18.4681 12.1871 18.4681C15.6504 18.4681 18.4679 15.6507 18.4679 12.1876C18.4679 8.72426 15.6504 5.90674 12.1871 5.90674ZM12.1871 16.3053C9.91641 16.3053 8.06892 14.4581 8.06892 12.1874C8.06892 9.91661 9.91627 8.06926 12.1871 8.06926C14.4579 8.06926 16.3052 9.91661 16.3052 12.1874C16.3052 14.4581 14.4577 16.3053 12.1871 16.3053Z" fill="white"/>
<path d="M18.7315 4.07324C18.3148 4.07324 17.9055 4.24193 17.6112 4.5375C17.3155 4.83162 17.1455 5.24108 17.1455 5.6592C17.1455 6.07602 17.3156 6.48534 17.6112 6.7809C17.9053 7.07503 18.3148 7.24516 18.7315 7.24516C19.1496 7.24516 19.5576 7.07503 19.8532 6.7809C20.1487 6.48534 20.3174 6.07587 20.3174 5.6592C20.3174 5.24108 20.1487 4.83162 19.8532 4.5375C19.559 4.24193 19.1496 4.07324 18.7315 4.07324Z" fill="white"/>
</svg>
