<svg width="20" height="49" viewBox="0 0 20 49" fill="none" xmlns="http://www.w3.org/2000/svg">
<path d="M19.2782 1.31071C19.4498 1.09436 19.4135 0.779864 19.1972 0.608262C18.9808 0.436661 18.6663 0.472938 18.4947 0.689288L19.2782 1.31071ZM1 23.5508L0.608262 23.2401C0.467292 23.4178 0.46364 23.6682 0.599367 23.85L1 23.5508ZM18.4858 47.8039C18.651 48.0252 18.9644 48.0706 19.1856 47.9054C19.4069 47.7402 19.4523 47.4269 19.2871 47.2056L18.4858 47.8039ZM18.4947 0.689288L0.608262 23.2401L1.39174 23.8615L19.2782 1.31071L18.4947 0.689288ZM0.599367 23.85L18.4858 47.8039L19.2871 47.2056L1.40063 23.2517L0.599367 23.85Z" fill="black"/>
</svg>
