<svg id="Layer_1" data-name="Layer 1" xmlns="http://www.w3.org/2000/svg" viewBox="0 0 798.31 399.15"><defs><style>.cls-1{fill:#ffffff;}</style></defs><title>Artistic Elements</title><polygon class="cls-1" points="352.89 299.85 147.18 299.85 147.18 94.69 352.89 94.69 352.89 140.01 344.97 140.01 344.97 102.61 155.1 102.61 155.1 291.93 344.97 291.93 344.97 256.35 352.89 256.35 352.89 299.85"/><path class="cls-1" d="M199.12,210l-6.59,20h-8.48l21.57-63.49h9.89l21.67,63.49h-8.76l-6.78-20Zm20.82-6.41-6.22-18.27c-1.41-4.15-2.35-7.92-3.29-11.59h-.19c-1,3.77-2,7.63-3.21,11.49l-6.21,18.37Z"/><path class="cls-1" d="M246.5,167.29A85.13,85.13,0,0,1,262.23,166c8.76,0,14.41,1.6,18.37,5.18a15.81,15.81,0,0,1,5,12.06c0,8.38-5.27,13.94-12,16.2v.28c4.9,1.7,7.82,6.22,9.33,12.81,2.07,8.86,3.58,15,4.89,17.43h-8.47c-1-1.79-2.45-7.25-4.24-15.17-1.89-8.76-5.28-12-12.72-12.34H254.7v27.51h-8.2Zm8.2,28.92h8.38c8.76,0,14.32-4.81,14.32-12.06,0-8.2-5.94-11.78-14.6-11.87a33.51,33.51,0,0,0-8.1.75Z"/><path class="cls-1" d="M310.08,173.41H290.77v-7h47v7h-19.4v56.52h-8.29Z"/><path class="cls-1" d="M353,166.44v63.49h-8.19V166.44Z"/><path class="cls-1" d="M366.22,219.94a28.93,28.93,0,0,0,14.69,4.15c8.39,0,13.29-4.43,13.29-10.83,0-5.94-3.4-9.33-12-12.63-10.36-3.67-16.77-9-16.77-18,0-9.89,8.2-17.24,20.54-17.24,6.5,0,11.21,1.51,14,3.11l-2.26,6.69a25.34,25.34,0,0,0-12.06-3c-8.67,0-12,5.18-12,9.52,0,5.93,3.87,8.85,12.63,12.24,10.74,4.15,16.2,9.33,16.2,18.66,0,9.79-7.25,18.27-22.23,18.27-6.12,0-12.81-1.79-16.2-4.05Z"/><path class="cls-1" d="M425.84,173.41H406.53v-7h47v7H434.13v56.52h-8.29Z"/><path class="cls-1" d="M468.8,166.44v63.49h-8.2V166.44Z"/><path class="cls-1" d="M527.48,227.86c-3,1.5-9,3-16.77,3-17.9,0-31.37-11.3-31.37-32.12,0-19.88,13.47-33.35,33.16-33.35,7.92,0,12.91,1.7,15.08,2.83l-2,6.69a29.82,29.82,0,0,0-12.81-2.64c-14.89,0-24.78,9.51-24.78,26.19C488,214,497,224,512.41,224a32.87,32.87,0,0,0,13.38-2.63Z"/><path class="cls-1" d="M393.74,279.46H376.83v15.69h18.85v4.72H371.21V256.35h23.5v4.72H376.83v13.75h16.91Z"/><path class="cls-1" d="M403,256.35h5.62v38.8h18.59v4.72H403Z"/><path class="cls-1" d="M456,279.46H439.06v15.69h18.85v4.72H433.44V256.35h23.5v4.72H439.06v13.75H456Z"/><path class="cls-1" d="M501.87,280.76c-.32-6.07-.71-13.37-.64-18.79H501c-1.48,5.1-3.29,10.52-5.49,16.53l-7.68,21.11H483.6l-7-20.73c-2.06-6.13-3.8-11.75-5-16.91h-.13c-.13,5.42-.45,12.72-.84,19.24l-1.16,18.66H464l3-43.52h7.17l7.42,21c1.81,5.36,3.3,10.14,4.39,14.65h.2c1.1-4.39,2.64-9.16,4.58-14.65l7.75-21h7.17l2.71,43.52H503Z"/><path class="cls-1" d="M539.63,279.46H522.72v15.69h18.85v4.72H517.1V256.35h23.5v4.72H522.72v13.75h16.91Z"/><path class="cls-1" d="M548.86,299.87V256.35H555l13.94,22a121.5,121.5,0,0,1,7.81,14.14l.13-.07c-.52-5.81-.64-11.1-.64-17.88V256.35h5.29v43.52h-5.68L562,277.79a139.07,139.07,0,0,1-8.13-14.53l-.2.06c.33,5.49.46,10.72.46,17.95v18.6Z"/><path class="cls-1" d="M599.6,261.13H586.37v-4.78h32.21v4.78h-13.3v38.74H599.6Z"/><path class="cls-1" d="M622.26,293a19.91,19.91,0,0,0,10.07,2.84c5.75,0,9.1-3,9.1-7.42,0-4.07-2.32-6.39-8.2-8.65-7.1-2.52-11.49-6.2-11.49-12.33,0-6.78,5.62-11.82,14.08-11.82a19.89,19.89,0,0,1,9.62,2.13l-1.55,4.59a17.28,17.28,0,0,0-8.27-2.07c-5.94,0-8.2,3.55-8.2,6.52,0,4.07,2.65,6.07,8.65,8.39,7.36,2.84,11.11,6.4,11.11,12.79,0,6.71-5,12.52-15.24,12.52-4.19,0-8.78-1.23-11.1-2.77Z"/></svg>
