<svg width="14" height="15" viewBox="0 0 14 15" fill="none" xmlns="http://www.w3.org/2000/svg">
<path d="M11.0703 8.6876C10.7832 8.38873 10.437 8.22894 10.0701 8.22894C9.70613 8.22894 9.35696 8.38577 9.05809 8.68464L8.12302 9.61675C8.04609 9.57532 7.96915 9.53685 7.89518 9.49839C7.78865 9.44512 7.68804 9.39482 7.60223 9.34155C6.72634 8.78525 5.93034 8.06027 5.1669 7.12224C4.79701 6.65471 4.54845 6.26115 4.36795 5.86167C4.61059 5.63974 4.83548 5.40893 5.05446 5.187C5.13731 5.10415 5.22016 5.01833 5.30302 4.93548C5.92443 4.31407 5.92443 3.5092 5.30302 2.88779L4.49519 2.07996C4.40346 1.98823 4.30877 1.89354 4.21999 1.79885C4.04245 1.61539 3.85603 1.42601 3.66369 1.24846C3.37665 0.96439 3.0334 0.813477 2.67239 0.813477C2.31138 0.813477 1.96221 0.96439 1.6663 1.24846C1.66334 1.25142 1.66334 1.25142 1.66039 1.25438L0.654297 2.26935C0.275535 2.64811 0.0595215 3.10972 0.0121762 3.64532C-0.0588418 4.50937 0.195639 5.31424 0.390939 5.84096C0.87031 7.13408 1.58641 8.33251 2.65464 9.61675C3.95072 11.1643 5.51015 12.3864 7.29152 13.2475C7.97211 13.5701 8.88055 13.9518 9.89552 14.0169C9.95766 14.0199 10.0228 14.0228 10.0819 14.0228C10.7655 14.0228 11.3395 13.7772 11.7893 13.289C11.7923 13.2831 11.7982 13.2801 11.8012 13.2742C11.955 13.0878 12.1326 12.9191 12.319 12.7386C12.4462 12.6173 12.5764 12.49 12.7037 12.3569C12.9966 12.0521 13.1505 11.697 13.1505 11.333C13.1505 10.9661 12.9937 10.614 12.6948 10.3181L11.0703 8.6876ZM12.1296 11.8035C12.1267 11.8035 12.1267 11.8065 12.1296 11.8035C12.0142 11.9278 11.8959 12.0402 11.7686 12.1645C11.5763 12.348 11.381 12.5403 11.1975 12.7563C10.8986 13.0759 10.5465 13.2268 10.0849 13.2268C10.0405 13.2268 9.99317 13.2268 9.94878 13.2239C9.06993 13.1676 8.25322 12.8244 7.64069 12.5314C5.96585 11.7207 4.49519 10.5696 3.27309 9.11075C2.26404 7.89456 1.58937 6.77011 1.14255 5.5628C0.867351 4.82599 0.766743 4.25193 0.811129 3.71042C0.84072 3.36421 0.973878 3.07718 1.21948 2.83157L2.22853 1.82252C2.37353 1.68641 2.5274 1.61243 2.67831 1.61243C2.86473 1.61243 3.01565 1.72487 3.11034 1.81956C3.1133 1.82252 3.11626 1.82548 3.11921 1.82844C3.29972 1.99711 3.47135 2.1717 3.65185 2.35812C3.74358 2.45281 3.83827 2.5475 3.93296 2.64515L4.74079 3.45298C5.05445 3.76664 5.05445 4.05663 4.74079 4.37029C4.65498 4.45611 4.57212 4.54192 4.48631 4.62478C4.23775 4.87926 4.00102 5.11598 3.74358 5.34679C3.73766 5.35271 3.73174 5.35567 3.72879 5.36159C3.4743 5.61607 3.52165 5.86463 3.57491 6.0333C3.57787 6.04218 3.58083 6.05105 3.58379 6.05993C3.79389 6.56889 4.08979 7.04826 4.53957 7.61937L4.54253 7.62233C5.35924 8.62842 6.22033 9.41257 7.1702 10.0133C7.29152 10.0902 7.4158 10.1523 7.53417 10.2115C7.64069 10.2648 7.7413 10.3151 7.82712 10.3684C7.83895 10.3743 7.85079 10.3832 7.86263 10.3891C7.96323 10.4394 8.05793 10.463 8.15557 10.463C8.40118 10.463 8.55505 10.3092 8.60536 10.2589L9.61736 9.24686C9.71797 9.14625 9.87776 9.02493 10.0642 9.02493C10.2476 9.02493 10.3986 9.14034 10.4903 9.24094C10.4933 9.2439 10.4933 9.2439 10.4962 9.24686L12.1267 10.8773C12.4315 11.1791 12.4315 11.4898 12.1296 11.8035Z" fill="white"/>
<path d="M7.5671 3.33787C8.34238 3.46807 9.04664 3.835 9.60887 4.39723C10.1711 4.95945 10.5351 5.66371 10.6682 6.43899C10.7008 6.63429 10.8694 6.77041 11.0618 6.77041C11.0855 6.77041 11.1062 6.76745 11.1298 6.76449C11.3488 6.72898 11.4938 6.52185 11.4583 6.30288C11.2985 5.36485 10.8546 4.50967 10.177 3.83204C9.49938 3.15441 8.64421 2.71055 7.70618 2.55076C7.48721 2.51525 7.28303 2.66024 7.24456 2.87626C7.20609 3.09227 7.34813 3.30237 7.5671 3.33787Z" fill="white"/>
<path d="M13.9941 6.18759C13.7308 4.64294 13.0028 3.23738 11.8843 2.11885C10.7658 1.00031 9.36021 0.272378 7.81557 0.00901992C7.59955 -0.0294482 7.39538 0.118506 7.35691 0.334519C7.3214 0.553491 7.46639 0.757668 7.68537 0.796136C9.0643 1.0299 10.3219 1.68386 11.3221 2.68107C12.3223 3.68124 12.9732 4.93885 13.207 6.31779C13.2396 6.51308 13.4082 6.6492 13.6006 6.6492C13.6242 6.6492 13.645 6.64624 13.6686 6.64328C13.8846 6.61073 14.0326 6.4036 13.9941 6.18759Z" fill="white"/>
</svg>
