<svg width="20" height="24" viewBox="0 0 20 24" fill="none" xmlns="http://www.w3.org/2000/svg">
<path d="M10.1788 0C3.41173 0 0 4.69571 0 8.61055C0 10.982 0.927611 13.0901 2.91516 13.8775C2.99902 13.9103 3.08156 13.9273 3.15886 13.9273C3.38159 13.9273 3.56109 13.791 3.62922 13.5316C3.69604 13.2905 3.85064 12.6813 3.92139 12.4245C4.01572 12.0786 3.98035 11.9594 3.717 11.658C3.14314 11.0029 2.77497 10.1553 2.77497 8.95644C2.77497 5.47134 5.47134 2.35441 9.78971 2.35441C13.6141 2.35441 15.7157 4.61579 15.7157 7.63577C15.7157 11.6096 13.8985 14.965 11.2008 14.965C9.70848 14.965 8.59482 13.7714 8.9525 12.3092C9.38093 10.5627 10.2116 8.67868 10.2116 7.41959C10.2116 6.29021 9.58401 5.3508 8.28955 5.3508C6.76449 5.3508 5.54078 6.87455 5.54078 8.91844C5.54078 10.2181 5.99541 11.0999 5.99541 11.0999C5.99541 11.0999 4.43891 17.491 4.16508 18.6112C3.62004 20.8398 4.08254 23.5729 4.12185 23.848C4.13495 23.9463 4.2188 24 4.30527 24C4.36292 24 4.42188 23.9764 4.45987 23.9266C4.60137 23.7511 6.41467 21.5827 7.03177 19.4157C7.20864 18.8025 8.03406 15.6279 8.03406 15.6279C8.52931 16.5411 9.97576 17.3442 11.5152 17.3442C16.093 17.3442 19.1995 13.3076 19.1995 7.90042C19.1982 3.80871 15.62 0 10.1788 0Z" fill="url(#paint1_linear)"/>
<defs>
<linearGradient id="paint0_linear" x1="6.05912" y1="16.7083" x2="32.6417" y2="16.8013" gradientUnits="userSpaceOnUse">
<stop stop-color="#CBB6A4"/>
<stop offset="0.261458" stop-color="#ECD9C7"/>
<stop offset="0.630076" stop-color="#B39C8B"/>
</linearGradient>
<linearGradient id="paint1_linear" x1="9.07675" y1="17.3497" x2="29.5342" y2="17.4259" gradientUnits="userSpaceOnUse">
<stop stop-color="#CBB6A4"/>
<stop offset="0.261458" stop-color="#ECD9C7"/>
<stop offset="0.630076" stop-color="#B39C8B"/>
</linearGradient>
</defs>
</svg>
