<svg width="45" height="36" viewBox="0 0 45 36" fill="none" xmlns="http://www.w3.org/2000/svg">
<path d="M23.6 27.4C23.6 22.4533 25.42 17.6 29.06 12.84C32.7933 7.98666 37.8333 4.01999 44.18 0.939996L44.88 2.9C40.4933 5.60666 36.9933 8.54666 34.38 11.72C31.7667 14.8933 30.32 18.0667 30.04 21.24C32.7467 18.9067 35.1733 17.74 37.32 17.74C38.5333 17.74 39.4667 18.2067 40.12 19.14C40.8667 19.98 41.24 21.1467 41.24 22.64C41.24 24.6 40.68 26.6067 39.56 28.66C38.44 30.7133 36.9933 32.3933 35.22 33.7C33.4467 35.0067 31.6267 35.66 29.76 35.66C25.6533 35.66 23.6 32.9067 23.6 27.4ZM0.360001 27.4C0.360001 22.4533 2.18 17.6 5.82 12.84C9.55333 7.98666 14.5933 4.01999 20.94 0.939996L21.64 2.9C17.2533 5.60666 13.7533 8.54666 11.14 11.72C8.52667 14.8933 7.08 18.0667 6.8 21.24C9.50667 18.9067 11.9333 17.74 14.08 17.74C15.2933 17.74 16.2267 18.2067 16.88 19.14C17.6267 19.98 18 21.1467 18 22.64C18 24.6 17.44 26.6067 16.32 28.66C15.2 30.7133 13.7533 32.3933 11.98 33.7C10.2067 35.0067 8.38667 35.66 6.52 35.66C2.41333 35.66 0.360001 32.9067 0.360001 27.4Z" fill="url(#paint0_linear)"/>
<defs>
<linearGradient id="paint0_linear" x1="-16.865" y1="10.4167" x2="43.8241" y2="10.6589" gradientUnits="userSpaceOnUse">
<stop stop-color="#ECD9C7"/>
<stop offset="0.141666" stop-color="#DECAB8"/>
<stop offset="0.630076" stop-color="#B39C8B"/>
</linearGradient>
</defs>
</svg>
