<svg width="20" height="49" viewBox="0 0 20 49" fill="none" xmlns="http://www.w3.org/2000/svg">
<path d="M0.608276 47.1942C0.436674 47.4105 0.472952 47.725 0.689302 47.8966C0.905653 48.0682 1.22015 48.0319 1.39175 47.8156L0.608276 47.1942ZM18.8865 24.9541L19.2782 25.2648C19.4192 25.087 19.4228 24.8367 19.2871 24.6549L18.8865 24.9541ZM1.40065 0.700941C1.23543 0.479678 0.922127 0.434241 0.700863 0.599459C0.479599 0.764677 0.434166 1.07798 0.599385 1.29925L1.40065 0.700941ZM1.39175 47.8156L19.2782 25.2648L18.4947 24.6434L0.608276 47.1942L1.39175 47.8156ZM19.2871 24.6549L1.40065 0.700941L0.599385 1.29925L18.4858 25.2532L19.2871 24.6549Z" fill="black"/>
</svg>
